<?xml version="1.0" encoding="UTF-8" standalone="no"?>
<!DOCTYPE svg PUBLIC "-//W3C//DTD SVG 1.1//EN"
 "http://www.w3.org/Graphics/SVG/1.1/DTD/svg11.dtd">
<!-- Generated by graphviz version 2.40.1 (20161225.0304)
 -->
<!-- Title: dependencies Pages: 1 -->
<svg width="1027pt" height="284pt"
 viewBox="0.00 0.00 1027.00 284.00" xmlns="http://www.w3.org/2000/svg" xmlns:xlink="http://www.w3.org/1999/xlink">
<g id="graph0" class="graph" transform="scale(1 1) rotate(0) translate(4 280)">
<title>dependencies</title>
<polygon fill="#ffffff" stroke="transparent" points="-4,4 -4,-280 1023,-280 1023,4 -4,4"/>
<text text-anchor="start" x="488.5091" y="-42.4" font-family="sans-serif" font-weight="bold" font-size="14.00" fill="#000000">Legend</text>
<polygon fill="#ffffb3" stroke="transparent" points="275.5,-10 275.5,-30 295.5,-30 295.5,-10 275.5,-10"/>
<text text-anchor="start" x="299.129" y="-15.4" font-family="sans-serif" font-size="14.00" fill="#000000"> &#160;Declarations</text>
<polygon fill="#8dd3c7" stroke="transparent" points="388.5,-10 388.5,-30 408.5,-30 408.5,-10 388.5,-10"/>
<text text-anchor="start" x="412.2251" y="-15.4" font-family="sans-serif" font-size="14.00" fill="#000000"> &#160;Module</text>
<polygon fill="#80b1d3" stroke="transparent" points="474.5,-10 474.5,-30 494.5,-30 494.5,-10 474.5,-10"/>
<text text-anchor="start" x="498.2812" y="-15.4" font-family="sans-serif" font-size="14.00" fill="#000000"> &#160;Bootstrap</text>
<polygon fill="#fdb462" stroke="transparent" points="571.5,-10 571.5,-30 591.5,-30 591.5,-10 571.5,-10"/>
<text text-anchor="start" x="595.1732" y="-15.4" font-family="sans-serif" font-size="14.00" fill="#000000"> &#160;Providers</text>
<polygon fill="#fb8072" stroke="transparent" points="667.5,-10 667.5,-30 687.5,-30 687.5,-10 667.5,-10"/>
<text text-anchor="start" x="691.2258" y="-15.4" font-family="sans-serif" font-size="14.00" fill="#000000"> &#160;Exports</text>
<g id="clust1" class="cluster">
<title>cluster_PrestationsModule</title>
<polygon fill="none" stroke="#000000" stroke-dasharray="1,5" points="8,-70 8,-268 1011,-268 1011,-70 8,-70"/>
</g>
<g id="clust2" class="cluster">
<title>cluster_PrestationsModule_declarations</title>
<polygon fill="none" stroke="#000000" points="322,-78 322,-130 1003,-130 1003,-78 322,-78"/>
</g>
<g id="clust7" class="cluster">
<title>cluster_PrestationsModule_imports</title>
<polygon fill="none" stroke="#000000" points="16,-78 16,-130 314,-130 314,-78 16,-78"/>
</g>
<g id="clust8" class="cluster">
<title>cluster_PrestationsModule_exports</title>
<polygon fill="none" stroke="#000000" points="399,-208 399,-260 561,-260 561,-208 399,-208"/>
</g>
<!-- AddPrestationsComponent -->
<g id="node1" class="node">
<title>AddPrestationsComponent</title>
<polygon fill="#ffffb3" stroke="#000000" points="995.3724,-122 828.6276,-122 828.6276,-86 995.3724,-86 995.3724,-122"/>
<text text-anchor="middle" x="912" y="-99.8" font-family="Times,serif" font-size="14.00" fill="#000000">AddPrestationsComponent</text>
</g>
<!-- PrestationsModule -->
<g id="node5" class="node">
<title>PrestationsModule</title>
<polygon fill="#8dd3c7" stroke="#000000" points="540.4832,-187 537.4832,-191 516.4832,-191 513.4832,-187 419.5168,-187 419.5168,-151 540.4832,-151 540.4832,-187"/>
<text text-anchor="middle" x="480" y="-164.8" font-family="Times,serif" font-size="14.00" fill="#000000">PrestationsModule</text>
</g>
<!-- AddPrestationsComponent&#45;&gt;PrestationsModule -->
<g id="edge1" class="edge">
<title>AddPrestationsComponent&#45;&gt;PrestationsModule</title>
<path fill="none" stroke="#000000" d="M912,-122.2843C912,-143.3211 912,-175 912,-175 912,-175 550.5226,-175 550.5226,-175"/>
<polygon fill="#000000" stroke="#000000" points="550.5227,-171.5001 540.5226,-175 550.5226,-178.5001 550.5227,-171.5001"/>
</g>
<!-- ListPrestationsComponent -->
<g id="node2" class="node">
<title>ListPrestationsComponent</title>
<polygon fill="#ffffb3" stroke="#000000" points="810.0448,-122 645.9552,-122 645.9552,-86 810.0448,-86 810.0448,-122"/>
<text text-anchor="middle" x="728" y="-99.8" font-family="Times,serif" font-size="14.00" fill="#000000">ListPrestationsComponent</text>
</g>
<!-- ListPrestationsComponent&#45;&gt;PrestationsModule -->
<g id="edge2" class="edge">
<title>ListPrestationsComponent&#45;&gt;PrestationsModule</title>
<path fill="none" stroke="#000000" d="M728,-122.0225C728,-139.3734 728,-163 728,-163 728,-163 550.6676,-163 550.6676,-163"/>
<polygon fill="#000000" stroke="#000000" points="550.6677,-159.5001 540.6676,-163 550.6676,-166.5001 550.6677,-159.5001"/>
</g>
<!-- PrestationComponent -->
<g id="node3" class="node">
<title>PrestationComponent</title>
<polygon fill="#ffffb3" stroke="#000000" points="627.8216,-122 490.1784,-122 490.1784,-86 627.8216,-86 627.8216,-122"/>
<text text-anchor="middle" x="559" y="-99.8" font-family="Times,serif" font-size="14.00" fill="#000000">PrestationComponent</text>
</g>
<!-- PrestationComponent&#45;&gt;PrestationsModule -->
<g id="edge3" class="edge">
<title>PrestationComponent&#45;&gt;PrestationsModule</title>
<path fill="none" stroke="#000000" d="M515.4155,-122.1061C515.4155,-122.1061 515.4155,-140.991 515.4155,-140.991"/>
<polygon fill="#000000" stroke="#000000" points="511.9156,-140.9909 515.4155,-150.991 518.9156,-140.991 511.9156,-140.9909"/>
</g>
<!-- PrestationsComponent -->
<g id="node4" class="node">
<title>PrestationsComponent</title>
<polygon fill="#ffffb3" stroke="#000000" points="472.266,-122 329.734,-122 329.734,-86 472.266,-86 472.266,-122"/>
<text text-anchor="middle" x="401" y="-99.8" font-family="Times,serif" font-size="14.00" fill="#000000">PrestationsComponent</text>
</g>
<!-- PrestationsComponent&#45;&gt;PrestationsModule -->
<g id="edge4" class="edge">
<title>PrestationsComponent&#45;&gt;PrestationsModule</title>
<path fill="none" stroke="#000000" d="M445.9457,-122.1061C445.9457,-122.1061 445.9457,-140.991 445.9457,-140.991"/>
<polygon fill="#000000" stroke="#000000" points="442.4457,-140.9909 445.9457,-150.991 449.4457,-140.991 442.4457,-140.9909"/>
</g>
<!-- PrestationsComponent  -->
<g id="node8" class="node">
<title>PrestationsComponent </title>
<polygon fill="#fb8072" stroke="#000000" points="553.266,-252 406.734,-252 406.734,-216 553.266,-216 553.266,-252"/>
<text text-anchor="middle" x="480" y="-229.8" font-family="Times,serif" font-size="14.00" fill="#000000">PrestationsComponent </text>
</g>
<!-- PrestationsModule&#45;&gt;PrestationsComponent  -->
<g id="edge7" class="edge">
<title>PrestationsModule&#45;&gt;PrestationsComponent </title>
<path fill="none" stroke="#000000" stroke-dasharray="5,2" d="M480,-187.1061C480,-187.1061 480,-205.991 480,-205.991"/>
<polygon fill="#000000" stroke="#000000" points="476.5001,-205.9909 480,-215.991 483.5001,-205.991 476.5001,-205.9909"/>
</g>
<!-- PrestationsRoutingModule -->
<g id="node6" class="node">
<title>PrestationsRoutingModule</title>
<polygon fill="#8dd3c7" stroke="#000000" points="306.101,-122 303.101,-126 282.101,-126 279.101,-122 139.899,-122 139.899,-86 306.101,-86 306.101,-122"/>
<text text-anchor="middle" x="223" y="-99.8" font-family="Times,serif" font-size="14.00" fill="#000000">PrestationsRoutingModule</text>
</g>
<!-- PrestationsRoutingModule&#45;&gt;PrestationsModule -->
<g id="edge5" class="edge">
<title>PrestationsRoutingModule&#45;&gt;PrestationsModule</title>
<path fill="none" stroke="#000000" d="M223,-122.0225C223,-139.3734 223,-163 223,-163 223,-163 409.42,-163 409.42,-163"/>
<polygon fill="#000000" stroke="#000000" points="409.4201,-166.5001 419.42,-163 409.42,-159.5001 409.4201,-166.5001"/>
</g>
<!-- SharedModule -->
<g id="node7" class="node">
<title>SharedModule</title>
<polygon fill="#8dd3c7" stroke="#000000" points="122.4231,-122 119.4231,-126 98.4231,-126 95.4231,-122 23.5769,-122 23.5769,-86 122.4231,-86 122.4231,-122"/>
<text text-anchor="middle" x="73" y="-99.8" font-family="Times,serif" font-size="14.00" fill="#000000">SharedModule</text>
</g>
<!-- SharedModule&#45;&gt;PrestationsModule -->
<g id="edge6" class="edge">
<title>SharedModule&#45;&gt;PrestationsModule</title>
<path fill="none" stroke="#000000" d="M73,-122.2843C73,-143.3211 73,-175 73,-175 73,-175 409.5075,-175 409.5075,-175"/>
<polygon fill="#000000" stroke="#000000" points="409.5075,-178.5001 419.5075,-175 409.5074,-171.5001 409.5075,-178.5001"/>
</g>
</g>
</svg>
