<?xml version="1.0" encoding="UTF-8" standalone="no"?>
<!DOCTYPE svg PUBLIC "-//W3C//DTD SVG 1.1//EN"
 "http://www.w3.org/Graphics/SVG/1.1/DTD/svg11.dtd">
<!-- Generated by graphviz version 2.40.1 (20161225.0304)
 -->
<!-- Title: dependencies Pages: 1 -->
<svg width="5209pt" height="366pt"
 viewBox="0.00 0.00 5209.00 366.00" xmlns="http://www.w3.org/2000/svg" xmlns:xlink="http://www.w3.org/1999/xlink">
<g id="graph0" class="graph" transform="scale(1 1) rotate(0) translate(4 362)">
<title>dependencies</title>
<polygon fill="#ffffff" stroke="transparent" points="-4,4 -4,-362 5205,-362 5205,4 -4,4"/>
<text text-anchor="start" x="2579.5091" y="-42.4" font-family="sans-serif" font-weight="bold" font-size="14.00" fill="#000000">Legend</text>
<polygon fill="#ffffb3" stroke="transparent" points="2366.5,-10 2366.5,-30 2386.5,-30 2386.5,-10 2366.5,-10"/>
<text text-anchor="start" x="2390.129" y="-15.4" font-family="sans-serif" font-size="14.00" fill="#000000"> &#160;Declarations</text>
<polygon fill="#8dd3c7" stroke="transparent" points="2479.5,-10 2479.5,-30 2499.5,-30 2499.5,-10 2479.5,-10"/>
<text text-anchor="start" x="2503.2251" y="-15.4" font-family="sans-serif" font-size="14.00" fill="#000000"> &#160;Module</text>
<polygon fill="#80b1d3" stroke="transparent" points="2565.5,-10 2565.5,-30 2585.5,-30 2585.5,-10 2565.5,-10"/>
<text text-anchor="start" x="2589.2812" y="-15.4" font-family="sans-serif" font-size="14.00" fill="#000000"> &#160;Bootstrap</text>
<polygon fill="#fdb462" stroke="transparent" points="2662.5,-10 2662.5,-30 2682.5,-30 2682.5,-10 2662.5,-10"/>
<text text-anchor="start" x="2686.1732" y="-15.4" font-family="sans-serif" font-size="14.00" fill="#000000"> &#160;Providers</text>
<polygon fill="#fb8072" stroke="transparent" points="2758.5,-10 2758.5,-30 2778.5,-30 2778.5,-10 2758.5,-10"/>
<text text-anchor="start" x="2782.2258" y="-15.4" font-family="sans-serif" font-size="14.00" fill="#000000"> &#160;Exports</text>
<g id="clust1" class="cluster">
<title>cluster_AppModule</title>
<polygon fill="none" stroke="#000000" stroke-dasharray="1,5" points="390,-146 390,-350 883,-350 883,-146 390,-146"/>
</g>
<g id="clust2" class="cluster">
<title>cluster_AppModule_declarations</title>
<polygon fill="none" stroke="#000000" points="753,-154 753,-206 875,-206 875,-154 753,-154"/>
</g>
<g id="clust4" class="cluster">
<title>cluster_AppModule_imports</title>
<polygon fill="none" stroke="#000000" points="398,-154 398,-206 745,-206 745,-154 398,-154"/>
</g>
<g id="clust6" class="cluster">
<title>cluster_AppModule_bootstrap</title>
<polygon fill="none" stroke="#000000" points="546,-290 546,-342 670,-342 670,-290 546,-290"/>
</g>
<g id="clust14" class="cluster">
<title>cluster_ClientsModule</title>
<polygon fill="none" stroke="#000000" stroke-dasharray="1,5" points="980,-70 980,-282 1874,-282 1874,-70 980,-70"/>
</g>
<g id="clust15" class="cluster">
<title>cluster_ClientsModule_declarations</title>
<polygon fill="none" stroke="#000000" points="988,-78 988,-130 1582,-130 1582,-78 988,-78"/>
</g>
<g id="clust20" class="cluster">
<title>cluster_ClientsModule_imports</title>
<polygon fill="none" stroke="#000000" points="1590,-78 1590,-130 1866,-130 1866,-78 1590,-78"/>
</g>
<g id="clust21" class="cluster">
<title>cluster_ClientsModule_exports</title>
<polygon fill="none" stroke="#000000" points="1357,-222 1357,-274 1497,-274 1497,-222 1357,-222"/>
</g>
<g id="clust30" class="cluster">
<title>cluster_LoginModule</title>
<polygon fill="none" stroke="#000000" stroke-dasharray="1,5" points="664,-70 664,-138 972,-138 972,-70 664,-70"/>
</g>
<g id="clust31" class="cluster">
<title>cluster_LoginModule_declarations</title>
<polygon fill="none" stroke="#000000" points="834,-78 834,-130 964,-130 964,-78 834,-78"/>
</g>
<g id="clust33" class="cluster">
<title>cluster_LoginModule_imports</title>
<polygon fill="none" stroke="#000000" points="672,-78 672,-130 826,-130 826,-78 672,-78"/>
</g>
<g id="clust43" class="cluster">
<title>cluster_PageNotFoundModule</title>
<polygon fill="none" stroke="#000000" stroke-dasharray="1,5" points="4783,-70 4783,-206 5193,-206 5193,-70 4783,-70"/>
</g>
<g id="clust44" class="cluster">
<title>cluster_PageNotFoundModule_declarations</title>
<polygon fill="none" stroke="#000000" points="5003,-78 5003,-130 5185,-130 5185,-78 5003,-78"/>
</g>
<g id="clust46" class="cluster">
<title>cluster_PageNotFoundModule_imports</title>
<polygon fill="none" stroke="#000000" points="4791,-78 4791,-130 4995,-130 4995,-78 4791,-78"/>
</g>
<g id="clust56" class="cluster">
<title>cluster_PrestationsModule</title>
<polygon fill="none" stroke="#000000" stroke-dasharray="1,5" points="3888,-70 3888,-282 4775,-282 4775,-70 3888,-70"/>
</g>
<g id="clust57" class="cluster">
<title>cluster_PrestationsModule_declarations</title>
<polygon fill="none" stroke="#000000" points="4086,-78 4086,-130 4767,-130 4767,-78 4086,-78"/>
</g>
<g id="clust62" class="cluster">
<title>cluster_PrestationsModule_imports</title>
<polygon fill="none" stroke="#000000" points="3896,-78 3896,-130 4078,-130 4078,-78 3896,-78"/>
</g>
<g id="clust63" class="cluster">
<title>cluster_PrestationsModule_exports</title>
<polygon fill="none" stroke="#000000" points="4163,-222 4163,-274 4325,-274 4325,-222 4163,-222"/>
</g>
<g id="clust72" class="cluster">
<title>cluster_SharedModule</title>
<polygon fill="none" stroke="#000000" stroke-dasharray="1,5" points="1882,-146 1882,-214 3880,-214 3880,-146 1882,-146"/>
</g>
<g id="clust73" class="cluster">
<title>cluster_SharedModule_declarations</title>
<polygon fill="none" stroke="#000000" points="2896,-154 2896,-206 3872,-206 3872,-154 2896,-154"/>
</g>
<g id="clust82" class="cluster">
<title>cluster_SharedModule_exports</title>
<polygon fill="none" stroke="#000000" points="1890,-154 1890,-206 2888,-206 2888,-154 1890,-154"/>
</g>
<g id="clust85" class="cluster">
<title>cluster_UiModule</title>
<polygon fill="none" stroke="#000000" stroke-dasharray="1,5" points="8,-70 8,-138 656,-138 656,-70 8,-70"/>
</g>
<g id="clust86" class="cluster">
<title>cluster_UiModule_declarations</title>
<polygon fill="none" stroke="#000000" points="138,-78 138,-130 648,-130 648,-78 138,-78"/>
</g>
<g id="clust92" class="cluster">
<title>cluster_UiModule_exports</title>
<polygon fill="none" stroke="#000000" points="16,-78 16,-130 130,-130 130,-78 16,-78"/>
</g>
<!-- AppComponent -->
<g id="node1" class="node">
<title>AppComponent</title>
<polygon fill="#ffffb3" stroke="#000000" points="866.9399,-198 761.0601,-198 761.0601,-162 866.9399,-162 866.9399,-198"/>
<text text-anchor="middle" x="814" y="-175.8" font-family="Times,serif" font-size="14.00" fill="#000000">AppComponent</text>
</g>
<!-- AppModule -->
<g id="node2" class="node">
<title>AppModule</title>
<polygon fill="#8dd3c7" stroke="#000000" points="649.6571,-266 646.6571,-270 625.6571,-270 622.6571,-266 566.3429,-266 566.3429,-230 649.6571,-230 649.6571,-266"/>
<text text-anchor="middle" x="608" y="-243.8" font-family="Times,serif" font-size="14.00" fill="#000000">AppModule</text>
</g>
<!-- AppComponent&#45;&gt;AppModule -->
<g id="edge1" class="edge">
<title>AppComponent&#45;&gt;AppModule</title>
<path fill="none" stroke="#000000" d="M814,-198.2228C814,-218.3652 814,-248 814,-248 814,-248 659.6872,-248 659.6872,-248"/>
<polygon fill="#000000" stroke="#000000" points="659.6872,-244.5001 649.6872,-248 659.6871,-251.5001 659.6872,-244.5001"/>
</g>
<!-- AppComponent  -->
<g id="node6" class="node">
<title>AppComponent </title>
<polygon fill="#80b1d3" stroke="#000000" points="662.439,-334 553.561,-334 553.561,-298 662.439,-298 662.439,-334"/>
<text text-anchor="middle" x="608" y="-311.8" font-family="Times,serif" font-size="14.00" fill="#000000">AppComponent </text>
</g>
<!-- AppModule&#45;&gt;AppComponent  -->
<g id="edge5" class="edge">
<title>AppModule&#45;&gt;AppComponent </title>
<path fill="none" stroke="#000000" stroke-dasharray="1,5" d="M608,-266.2228C608,-266.2228 608,-287.7269 608,-287.7269"/>
<polygon fill="#000000" stroke="#000000" points="604.5001,-287.7269 608,-297.7269 611.5001,-287.727 604.5001,-287.7269"/>
</g>
<!-- AppRoutingModule -->
<g id="node3" class="node">
<title>AppRoutingModule</title>
<polygon fill="#8dd3c7" stroke="#000000" points="737.2744,-198 734.2744,-202 713.2744,-202 710.2744,-198 608.7256,-198 608.7256,-162 737.2744,-162 737.2744,-198"/>
<text text-anchor="middle" x="673" y="-175.8" font-family="Times,serif" font-size="14.00" fill="#000000">AppRoutingModule</text>
</g>
<!-- AppRoutingModule&#45;&gt;AppModule -->
<g id="edge2" class="edge">
<title>AppRoutingModule&#45;&gt;AppModule</title>
<path fill="none" stroke="#000000" d="M629.2206,-198.2228C629.2206,-198.2228 629.2206,-219.7269 629.2206,-219.7269"/>
<polygon fill="#000000" stroke="#000000" points="625.7206,-219.7269 629.2206,-229.7269 632.7206,-219.727 625.7206,-219.7269"/>
</g>
<!-- LoginModule -->
<g id="node4" class="node">
<title>LoginModule</title>
<polygon fill="#8dd3c7" stroke="#000000" points="590.493,-198 587.493,-202 566.493,-202 563.493,-198 497.507,-198 497.507,-162 590.493,-162 590.493,-198"/>
<text text-anchor="middle" x="544" y="-175.8" font-family="Times,serif" font-size="14.00" fill="#000000">LoginModule</text>
</g>
<!-- LoginModule&#45;&gt;AppModule -->
<g id="edge3" class="edge">
<title>LoginModule&#45;&gt;AppModule</title>
<path fill="none" stroke="#000000" d="M578.3342,-198.2228C578.3342,-198.2228 578.3342,-219.7269 578.3342,-219.7269"/>
<polygon fill="#000000" stroke="#000000" points="574.8342,-219.7269 578.3342,-229.7269 581.8342,-219.727 574.8342,-219.7269"/>
</g>
<!-- UiModule -->
<g id="node5" class="node">
<title>UiModule</title>
<polygon fill="#8dd3c7" stroke="#000000" points="479.5484,-198 476.5484,-202 455.5484,-202 452.5484,-198 406.4516,-198 406.4516,-162 479.5484,-162 479.5484,-198"/>
<text text-anchor="middle" x="443" y="-175.8" font-family="Times,serif" font-size="14.00" fill="#000000">UiModule</text>
</g>
<!-- UiModule&#45;&gt;AppModule -->
<g id="edge4" class="edge">
<title>UiModule&#45;&gt;AppModule</title>
<path fill="none" stroke="#000000" d="M443,-198.2228C443,-218.3652 443,-248 443,-248 443,-248 555.9366,-248 555.9366,-248"/>
<polygon fill="#000000" stroke="#000000" points="555.9366,-251.5001 565.9366,-248 555.9366,-244.5001 555.9366,-251.5001"/>
</g>
<!-- UiComponent  -->
<g id="node45" class="node">
<title>UiComponent </title>
<polygon fill="#fb8072" stroke="#000000" points="122.3297,-122 23.6703,-122 23.6703,-86 122.3297,-86 122.3297,-122"/>
<text text-anchor="middle" x="73" y="-99.8" font-family="Times,serif" font-size="14.00" fill="#000000">UiComponent </text>
</g>
<!-- UiModule&#45;&gt;UiComponent  -->
<g id="edge42" class="edge">
<title>UiModule&#45;&gt;UiComponent </title>
<path fill="none" stroke="#000000" stroke-dasharray="5,2" d="M406.1703,-189C312.5831,-189 73,-189 73,-189 73,-189 73,-132.0263 73,-132.0263"/>
<polygon fill="#000000" stroke="#000000" points="76.5001,-132.0263 73,-122.0263 69.5001,-132.0263 76.5001,-132.0263"/>
</g>
<!-- AddClientsComponent -->
<g id="node7" class="node">
<title>AddClientsComponent</title>
<polygon fill="#ffffb3" stroke="#000000" points="1573.6066,-122 1428.3934,-122 1428.3934,-86 1573.6066,-86 1573.6066,-122"/>
<text text-anchor="middle" x="1501" y="-99.8" font-family="Times,serif" font-size="14.00" fill="#000000">AddClientsComponent</text>
</g>
<!-- ClientsModule -->
<g id="node11" class="node">
<title>ClientsModule</title>
<polygon fill="#8dd3c7" stroke="#000000" points="1476.7176,-198 1473.7176,-202 1452.7176,-202 1449.7176,-198 1377.2824,-198 1377.2824,-162 1476.7176,-162 1476.7176,-198"/>
<text text-anchor="middle" x="1427" y="-175.8" font-family="Times,serif" font-size="14.00" fill="#000000">ClientsModule</text>
</g>
<!-- AddClientsComponent&#45;&gt;ClientsModule -->
<g id="edge6" class="edge">
<title>AddClientsComponent&#45;&gt;ClientsModule</title>
<path fill="none" stroke="#000000" d="M1452.5277,-122.0109C1452.5277,-122.0109 1452.5277,-151.855 1452.5277,-151.855"/>
<polygon fill="#000000" stroke="#000000" points="1449.0278,-151.8549 1452.5277,-161.855 1456.0278,-151.855 1449.0278,-151.8549"/>
</g>
<!-- ClientComponent -->
<g id="node8" class="node">
<title>ClientComponent</title>
<polygon fill="#ffffb3" stroke="#000000" points="1410.5563,-122 1295.4437,-122 1295.4437,-86 1410.5563,-86 1410.5563,-122"/>
<text text-anchor="middle" x="1353" y="-99.8" font-family="Times,serif" font-size="14.00" fill="#000000">ClientComponent</text>
</g>
<!-- ClientComponent&#45;&gt;ClientsModule -->
<g id="edge7" class="edge">
<title>ClientComponent&#45;&gt;ClientsModule</title>
<path fill="none" stroke="#000000" d="M1394.0845,-122.0109C1394.0845,-122.0109 1394.0845,-151.855 1394.0845,-151.855"/>
<polygon fill="#000000" stroke="#000000" points="1390.5846,-151.8549 1394.0845,-161.855 1397.5846,-151.855 1390.5846,-151.8549"/>
</g>
<!-- ClientsComponent -->
<g id="node9" class="node">
<title>ClientsComponent</title>
<polygon fill="#ffffb3" stroke="#000000" points="1277.5,-122 1156.5,-122 1156.5,-86 1277.5,-86 1277.5,-122"/>
<text text-anchor="middle" x="1217" y="-99.8" font-family="Times,serif" font-size="14.00" fill="#000000">ClientsComponent</text>
</g>
<!-- ClientsComponent&#45;&gt;ClientsModule -->
<g id="edge8" class="edge">
<title>ClientsComponent&#45;&gt;ClientsModule</title>
<path fill="none" stroke="#000000" d="M1217,-122.0267C1217,-142.7672 1217,-174 1217,-174 1217,-174 1367.2329,-174 1367.2329,-174"/>
<polygon fill="#000000" stroke="#000000" points="1367.233,-177.5001 1377.2329,-174 1367.2329,-170.5001 1367.233,-177.5001"/>
</g>
<!-- ListClientsComponent -->
<g id="node10" class="node">
<title>ListClientsComponent</title>
<polygon fill="#ffffb3" stroke="#000000" points="1138.2786,-122 995.7214,-122 995.7214,-86 1138.2786,-86 1138.2786,-122"/>
<text text-anchor="middle" x="1067" y="-99.8" font-family="Times,serif" font-size="14.00" fill="#000000">ListClientsComponent</text>
</g>
<!-- ListClientsComponent&#45;&gt;ClientsModule -->
<g id="edge9" class="edge">
<title>ListClientsComponent&#45;&gt;ClientsModule</title>
<path fill="none" stroke="#000000" d="M1067,-122.1985C1067,-146.3563 1067,-186 1067,-186 1067,-186 1367.3215,-186 1367.3215,-186"/>
<polygon fill="#000000" stroke="#000000" points="1367.3215,-189.5001 1377.3215,-186 1367.3215,-182.5001 1367.3215,-189.5001"/>
</g>
<!-- ClientsComponent  -->
<g id="node14" class="node">
<title>ClientsComponent </title>
<polygon fill="#fb8072" stroke="#000000" points="1489.501,-266 1364.499,-266 1364.499,-230 1489.501,-230 1489.501,-266"/>
<text text-anchor="middle" x="1427" y="-243.8" font-family="Times,serif" font-size="14.00" fill="#000000">ClientsComponent </text>
</g>
<!-- ClientsModule&#45;&gt;ClientsComponent  -->
<g id="edge12" class="edge">
<title>ClientsModule&#45;&gt;ClientsComponent </title>
<path fill="none" stroke="#000000" stroke-dasharray="5,2" d="M1427,-198.2228C1427,-198.2228 1427,-219.7269 1427,-219.7269"/>
<polygon fill="#000000" stroke="#000000" points="1423.5001,-219.7269 1427,-229.7269 1430.5001,-219.727 1423.5001,-219.7269"/>
</g>
<!-- ClientsRoutingModule -->
<g id="node12" class="node">
<title>ClientsRoutingModule</title>
<polygon fill="#8dd3c7" stroke="#000000" points="1742.3356,-122 1739.3356,-126 1718.3356,-126 1715.3356,-122 1597.6644,-122 1597.6644,-86 1742.3356,-86 1742.3356,-122"/>
<text text-anchor="middle" x="1670" y="-99.8" font-family="Times,serif" font-size="14.00" fill="#000000">ClientsRoutingModule</text>
</g>
<!-- ClientsRoutingModule&#45;&gt;ClientsModule -->
<g id="edge10" class="edge">
<title>ClientsRoutingModule&#45;&gt;ClientsModule</title>
<path fill="none" stroke="#000000" d="M1670,-122.0267C1670,-142.7672 1670,-174 1670,-174 1670,-174 1486.7611,-174 1486.7611,-174"/>
<polygon fill="#000000" stroke="#000000" points="1486.7611,-170.5001 1476.7611,-174 1486.761,-177.5001 1486.7611,-170.5001"/>
</g>
<!-- SharedModule -->
<g id="node13" class="node">
<title>SharedModule</title>
<polygon fill="#8dd3c7" stroke="#000000" points="1858.4231,-122 1855.4231,-126 1834.4231,-126 1831.4231,-122 1759.5769,-122 1759.5769,-86 1858.4231,-86 1858.4231,-122"/>
<text text-anchor="middle" x="1809" y="-99.8" font-family="Times,serif" font-size="14.00" fill="#000000">SharedModule</text>
</g>
<!-- SharedModule&#45;&gt;ClientsModule -->
<g id="edge11" class="edge">
<title>SharedModule&#45;&gt;ClientsModule</title>
<path fill="none" stroke="#000000" d="M1809,-122.1985C1809,-146.3563 1809,-186 1809,-186 1809,-186 1486.9398,-186 1486.9398,-186"/>
<polygon fill="#000000" stroke="#000000" points="1486.9399,-182.5001 1476.9398,-186 1486.9398,-189.5001 1486.9399,-182.5001"/>
</g>
<!-- PrestationsModule -->
<g id="node24" class="node">
<title>PrestationsModule</title>
<polygon fill="#8dd3c7" stroke="#000000" points="4304.4832,-198 4301.4832,-202 4280.4832,-202 4277.4832,-198 4183.5168,-198 4183.5168,-162 4304.4832,-162 4304.4832,-198"/>
<text text-anchor="middle" x="4244" y="-175.8" font-family="Times,serif" font-size="14.00" fill="#000000">PrestationsModule</text>
</g>
<!-- SharedModule&#45;&gt;PrestationsModule -->
<g id="edge22" class="edge">
<title>SharedModule&#45;&gt;PrestationsModule</title>
<path fill="none" stroke="#000000" d="M1858.2406,-89C2172.4331,-89 3883.7798,-89 3883.7798,-89 3883.7798,-89 3883.7798,-186 3883.7798,-186 3883.7798,-186 4173.3009,-186 4173.3009,-186"/>
<polygon fill="#000000" stroke="#000000" points="4173.3009,-189.5001 4183.3009,-186 4173.3009,-182.5001 4173.3009,-189.5001"/>
</g>
<!-- AjoutComponent  -->
<g id="node34" class="node">
<title>AjoutComponent </title>
<polygon fill="#fb8072" stroke="#000000" points="2880.2205,-198 2763.7795,-198 2763.7795,-162 2880.2205,-162 2880.2205,-198"/>
<text text-anchor="middle" x="2822" y="-175.8" font-family="Times,serif" font-size="14.00" fill="#000000">AjoutComponent </text>
</g>
<!-- SharedModule&#45;&gt;AjoutComponent  -->
<g id="edge31" class="edge">
<title>SharedModule&#45;&gt;AjoutComponent </title>
<path fill="none" stroke="#000000" stroke-dasharray="5,2" d="M1858.5448,-107C2061.9244,-107 2822,-107 2822,-107 2822,-107 2822,-151.9551 2822,-151.9551"/>
<polygon fill="#000000" stroke="#000000" points="2818.5001,-151.955 2822,-161.9551 2825.5001,-151.9551 2818.5001,-151.955"/>
</g>
<!-- StateDirective  -->
<g id="node35" class="node">
<title>StateDirective </title>
<polygon fill="#fb8072" stroke="#000000" points="2745.5767,-198 2646.4233,-198 2646.4233,-162 2745.5767,-162 2745.5767,-198"/>
<text text-anchor="middle" x="2696" y="-175.8" font-family="Times,serif" font-size="14.00" fill="#000000">StateDirective </text>
</g>
<!-- SharedModule&#45;&gt;StateDirective  -->
<g id="edge32" class="edge">
<title>SharedModule&#45;&gt;StateDirective </title>
<path fill="none" stroke="#000000" stroke-dasharray="5,2" d="M1858.2706,-109C2044.6447,-109 2696,-109 2696,-109 2696,-109 2696,-151.7157 2696,-151.7157"/>
<polygon fill="#000000" stroke="#000000" points="2692.5001,-151.7157 2696,-161.7157 2699.5001,-151.7158 2692.5001,-151.7157"/>
</g>
<!-- TableauComponent  -->
<g id="node36" class="node">
<title>TableauComponent </title>
<polygon fill="#fb8072" stroke="#000000" points="2627.9194,-198 2498.0806,-198 2498.0806,-162 2627.9194,-162 2627.9194,-198"/>
<text text-anchor="middle" x="2563" y="-175.8" font-family="Times,serif" font-size="14.00" fill="#000000">TableauComponent </text>
</g>
<!-- SharedModule&#45;&gt;TableauComponent  -->
<g id="edge33" class="edge">
<title>SharedModule&#45;&gt;TableauComponent </title>
<path fill="none" stroke="#000000" stroke-dasharray="5,2" d="M1858.472,-111C2026.2168,-111 2563,-111 2563,-111 2563,-111 2563,-151.8711 2563,-151.8711"/>
<polygon fill="#000000" stroke="#000000" points="2559.5001,-151.871 2563,-161.8711 2566.5001,-151.8711 2559.5001,-151.871"/>
</g>
<!-- TableauLightComponent  -->
<g id="node37" class="node">
<title>TableauLightComponent </title>
<polygon fill="#fb8072" stroke="#000000" points="2480.2534,-198 2319.7466,-198 2319.7466,-162 2480.2534,-162 2480.2534,-198"/>
<text text-anchor="middle" x="2400" y="-175.8" font-family="Times,serif" font-size="14.00" fill="#000000">TableauLightComponent </text>
</g>
<!-- SharedModule&#45;&gt;TableauLightComponent  -->
<g id="edge34" class="edge">
<title>SharedModule&#45;&gt;TableauLightComponent </title>
<path fill="none" stroke="#000000" stroke-dasharray="5,2" d="M1858.3718,-113C2000.4126,-113 2400,-113 2400,-113 2400,-113 2400,-151.692 2400,-151.692"/>
<polygon fill="#000000" stroke="#000000" points="2396.5001,-151.6919 2400,-161.692 2403.5001,-151.692 2396.5001,-151.6919"/>
</g>
<!-- TemplateAComponent  -->
<g id="node38" class="node">
<title>TemplateAComponent </title>
<polygon fill="#fb8072" stroke="#000000" points="2301.8073,-198 2154.1927,-198 2154.1927,-162 2301.8073,-162 2301.8073,-198"/>
<text text-anchor="middle" x="2228" y="-175.8" font-family="Times,serif" font-size="14.00" fill="#000000">TemplateAComponent </text>
</g>
<!-- SharedModule&#45;&gt;TemplateAComponent  -->
<g id="edge35" class="edge">
<title>SharedModule&#45;&gt;TemplateAComponent </title>
<path fill="none" stroke="#000000" stroke-dasharray="5,2" d="M1858.2967,-116C1969.056,-116 2228,-116 2228,-116 2228,-116 2228,-151.8314 2228,-151.8314"/>
<polygon fill="#000000" stroke="#000000" points="2224.5001,-151.8313 2228,-161.8314 2231.5001,-151.8314 2224.5001,-151.8313"/>
</g>
<!-- TemplateBComponent  -->
<g id="node39" class="node">
<title>TemplateBComponent </title>
<polygon fill="#fb8072" stroke="#000000" points="2136.5372,-198 1989.4628,-198 1989.4628,-162 2136.5372,-162 2136.5372,-198"/>
<text text-anchor="middle" x="2063" y="-175.8" font-family="Times,serif" font-size="14.00" fill="#000000">TemplateBComponent </text>
</g>
<!-- SharedModule&#45;&gt;TemplateBComponent  -->
<g id="edge36" class="edge">
<title>SharedModule&#45;&gt;TemplateBComponent </title>
<path fill="none" stroke="#000000" stroke-dasharray="5,2" d="M1858.2749,-118C1932.1395,-118 2063,-118 2063,-118 2063,-118 2063,-151.7333 2063,-151.7333"/>
<polygon fill="#000000" stroke="#000000" points="2059.5001,-151.7333 2063,-161.7333 2066.5001,-151.7333 2059.5001,-151.7333"/>
</g>
<!-- TotalPipe  -->
<g id="node40" class="node">
<title>TotalPipe </title>
<polygon fill="#fb8072" stroke="#000000" points="1971.9362,-198 1898.0638,-198 1898.0638,-162 1971.9362,-162 1971.9362,-198"/>
<text text-anchor="middle" x="1935" y="-175.8" font-family="Times,serif" font-size="14.00" fill="#000000">TotalPipe </text>
</g>
<!-- SharedModule&#45;&gt;TotalPipe  -->
<g id="edge37" class="edge">
<title>SharedModule&#45;&gt;TotalPipe </title>
<path fill="none" stroke="#000000" stroke-dasharray="5,2" d="M1858.4369,-120C1893.7365,-120 1935,-120 1935,-120 1935,-120 1935,-151.998 1935,-151.998"/>
<polygon fill="#000000" stroke="#000000" points="1931.5001,-151.998 1935,-161.998 1938.5001,-151.9981 1931.5001,-151.998"/>
</g>
<!-- LoginComponent -->
<g id="node15" class="node">
<title>LoginComponent</title>
<polygon fill="#ffffb3" stroke="#000000" points="956.2758,-122 841.7242,-122 841.7242,-86 956.2758,-86 956.2758,-122"/>
<text text-anchor="middle" x="899" y="-99.8" font-family="Times,serif" font-size="14.00" fill="#000000">LoginComponent</text>
</g>
<!-- LoginComponent&#45;&gt;LoginModule -->
<g id="edge13" class="edge">
<title>LoginComponent&#45;&gt;LoginModule</title>
<path fill="none" stroke="#000000" d="M854.1659,-122.1467C854.1659,-135.7395 854.1659,-152 854.1659,-152 854.1659,-152 573.3873,-152 573.3873,-152 573.3873,-152 573.3873,-152.9793 573.3873,-152.9793"/>
<polygon fill="#000000" stroke="#000000" points="569.8874,-151.793 573.3873,-161.793 576.8874,-151.7931 569.8874,-151.793"/>
</g>
<!-- LoginRoutingModule -->
<g id="node16" class="node">
<title>LoginRoutingModule</title>
<polygon fill="#8dd3c7" stroke="#000000" points="818.1108,-122 815.1108,-126 794.1108,-126 791.1108,-122 679.8892,-122 679.8892,-86 818.1108,-86 818.1108,-122"/>
<text text-anchor="middle" x="749" y="-99.8" font-family="Times,serif" font-size="14.00" fill="#000000">LoginRoutingModule</text>
</g>
<!-- LoginRoutingModule&#45;&gt;LoginModule -->
<g id="edge14" class="edge">
<title>LoginRoutingModule&#45;&gt;LoginModule</title>
<path fill="none" stroke="#000000" d="M708.6659,-122.1097C708.6659,-131.897 708.6659,-142 708.6659,-142 708.6659,-142 556.2781,-142 556.2781,-142 556.2781,-142 556.2781,-151.8903 556.2781,-151.8903"/>
<polygon fill="#000000" stroke="#000000" points="552.7781,-151.8903 556.2781,-161.8903 559.7781,-151.8904 552.7781,-151.8903"/>
</g>
<!-- PageNotFoundComponent -->
<g id="node17" class="node">
<title>PageNotFoundComponent</title>
<polygon fill="#ffffb3" stroke="#000000" points="5176.8243,-122 5011.1757,-122 5011.1757,-86 5176.8243,-86 5176.8243,-122"/>
<text text-anchor="middle" x="5094" y="-99.8" font-family="Times,serif" font-size="14.00" fill="#000000">PageNotFoundComponent</text>
</g>
<!-- PageNotFoundModule -->
<g id="node18" class="node">
<title>PageNotFoundModule</title>
<polygon fill="#8dd3c7" stroke="#000000" points="5064.5421,-198 5061.5421,-202 5040.5421,-202 5037.5421,-198 4921.4579,-198 4921.4579,-162 5064.5421,-162 5064.5421,-198"/>
<text text-anchor="middle" x="4993" y="-175.8" font-family="Times,serif" font-size="14.00" fill="#000000">PageNotFoundModule</text>
</g>
<!-- PageNotFoundComponent&#45;&gt;PageNotFoundModule -->
<g id="edge15" class="edge">
<title>PageNotFoundComponent&#45;&gt;PageNotFoundModule</title>
<path fill="none" stroke="#000000" d="M5038.0544,-122.0109C5038.0544,-122.0109 5038.0544,-151.855 5038.0544,-151.855"/>
<polygon fill="#000000" stroke="#000000" points="5034.5544,-151.8549 5038.0544,-161.855 5041.5544,-151.855 5034.5544,-151.8549"/>
</g>
<!-- PageNotFoundRoutingModule -->
<g id="node19" class="node">
<title>PageNotFoundRoutingModule</title>
<polygon fill="#8dd3c7" stroke="#000000" points="4987.1595,-122 4984.1595,-126 4963.1595,-126 4960.1595,-122 4798.8405,-122 4798.8405,-86 4987.1595,-86 4987.1595,-122"/>
<text text-anchor="middle" x="4893" y="-99.8" font-family="Times,serif" font-size="14.00" fill="#000000">PageNotFoundRoutingModule</text>
</g>
<!-- PageNotFoundRoutingModule&#45;&gt;PageNotFoundModule -->
<g id="edge16" class="edge">
<title>PageNotFoundRoutingModule&#45;&gt;PageNotFoundModule</title>
<path fill="none" stroke="#000000" d="M4954.2795,-122.0109C4954.2795,-122.0109 4954.2795,-151.855 4954.2795,-151.855"/>
<polygon fill="#000000" stroke="#000000" points="4950.7795,-151.8549 4954.2795,-161.855 4957.7795,-151.855 4950.7795,-151.8549"/>
</g>
<!-- AddPrestationsComponent -->
<g id="node20" class="node">
<title>AddPrestationsComponent</title>
<polygon fill="#ffffb3" stroke="#000000" points="4759.3724,-122 4592.6276,-122 4592.6276,-86 4759.3724,-86 4759.3724,-122"/>
<text text-anchor="middle" x="4676" y="-99.8" font-family="Times,serif" font-size="14.00" fill="#000000">AddPrestationsComponent</text>
</g>
<!-- AddPrestationsComponent&#45;&gt;PrestationsModule -->
<g id="edge17" class="edge">
<title>AddPrestationsComponent&#45;&gt;PrestationsModule</title>
<path fill="none" stroke="#000000" d="M4676,-122.1985C4676,-146.3563 4676,-186 4676,-186 4676,-186 4314.5226,-186 4314.5226,-186"/>
<polygon fill="#000000" stroke="#000000" points="4314.5227,-182.5001 4304.5226,-186 4314.5226,-189.5001 4314.5227,-182.5001"/>
</g>
<!-- ListPrestationsComponent -->
<g id="node21" class="node">
<title>ListPrestationsComponent</title>
<polygon fill="#ffffb3" stroke="#000000" points="4574.0448,-122 4409.9552,-122 4409.9552,-86 4574.0448,-86 4574.0448,-122"/>
<text text-anchor="middle" x="4492" y="-99.8" font-family="Times,serif" font-size="14.00" fill="#000000">ListPrestationsComponent</text>
</g>
<!-- ListPrestationsComponent&#45;&gt;PrestationsModule -->
<g id="edge18" class="edge">
<title>ListPrestationsComponent&#45;&gt;PrestationsModule</title>
<path fill="none" stroke="#000000" d="M4492,-122.0267C4492,-142.7672 4492,-174 4492,-174 4492,-174 4314.6676,-174 4314.6676,-174"/>
<polygon fill="#000000" stroke="#000000" points="4314.6677,-170.5001 4304.6676,-174 4314.6676,-177.5001 4314.6677,-170.5001"/>
</g>
<!-- PrestationComponent -->
<g id="node22" class="node">
<title>PrestationComponent</title>
<polygon fill="#ffffb3" stroke="#000000" points="4391.8216,-122 4254.1784,-122 4254.1784,-86 4391.8216,-86 4391.8216,-122"/>
<text text-anchor="middle" x="4323" y="-99.8" font-family="Times,serif" font-size="14.00" fill="#000000">PrestationComponent</text>
</g>
<!-- PrestationComponent&#45;&gt;PrestationsModule -->
<g id="edge19" class="edge">
<title>PrestationComponent&#45;&gt;PrestationsModule</title>
<path fill="none" stroke="#000000" d="M4279.4155,-122.0109C4279.4155,-122.0109 4279.4155,-151.855 4279.4155,-151.855"/>
<polygon fill="#000000" stroke="#000000" points="4275.9156,-151.8549 4279.4155,-161.855 4282.9156,-151.855 4275.9156,-151.8549"/>
</g>
<!-- PrestationsComponent -->
<g id="node23" class="node">
<title>PrestationsComponent</title>
<polygon fill="#ffffb3" stroke="#000000" points="4236.266,-122 4093.734,-122 4093.734,-86 4236.266,-86 4236.266,-122"/>
<text text-anchor="middle" x="4165" y="-99.8" font-family="Times,serif" font-size="14.00" fill="#000000">PrestationsComponent</text>
</g>
<!-- PrestationsComponent&#45;&gt;PrestationsModule -->
<g id="edge20" class="edge">
<title>PrestationsComponent&#45;&gt;PrestationsModule</title>
<path fill="none" stroke="#000000" d="M4209.9457,-122.0109C4209.9457,-122.0109 4209.9457,-151.855 4209.9457,-151.855"/>
<polygon fill="#000000" stroke="#000000" points="4206.4457,-151.8549 4209.9457,-161.855 4213.4457,-151.855 4206.4457,-151.8549"/>
</g>
<!-- PrestationsComponent  -->
<g id="node26" class="node">
<title>PrestationsComponent </title>
<polygon fill="#fb8072" stroke="#000000" points="4317.266,-266 4170.734,-266 4170.734,-230 4317.266,-230 4317.266,-266"/>
<text text-anchor="middle" x="4244" y="-243.8" font-family="Times,serif" font-size="14.00" fill="#000000">PrestationsComponent </text>
</g>
<!-- PrestationsModule&#45;&gt;PrestationsComponent  -->
<g id="edge23" class="edge">
<title>PrestationsModule&#45;&gt;PrestationsComponent </title>
<path fill="none" stroke="#000000" stroke-dasharray="5,2" d="M4244,-198.2228C4244,-198.2228 4244,-219.7269 4244,-219.7269"/>
<polygon fill="#000000" stroke="#000000" points="4240.5001,-219.7269 4244,-229.7269 4247.5001,-219.727 4240.5001,-219.7269"/>
</g>
<!-- PrestationsRoutingModule -->
<g id="node25" class="node">
<title>PrestationsRoutingModule</title>
<polygon fill="#8dd3c7" stroke="#000000" points="4070.101,-122 4067.101,-126 4046.101,-126 4043.101,-122 3903.899,-122 3903.899,-86 4070.101,-86 4070.101,-122"/>
<text text-anchor="middle" x="3987" y="-99.8" font-family="Times,serif" font-size="14.00" fill="#000000">PrestationsRoutingModule</text>
</g>
<!-- PrestationsRoutingModule&#45;&gt;PrestationsModule -->
<g id="edge21" class="edge">
<title>PrestationsRoutingModule&#45;&gt;PrestationsModule</title>
<path fill="none" stroke="#000000" d="M3987,-122.0267C3987,-142.7672 3987,-174 3987,-174 3987,-174 4173.42,-174 4173.42,-174"/>
<polygon fill="#000000" stroke="#000000" points="4173.4201,-177.5001 4183.42,-174 4173.42,-170.5001 4173.4201,-177.5001"/>
</g>
<!-- AjoutComponent -->
<g id="node27" class="node">
<title>AjoutComponent</title>
<polygon fill="#ffffb3" stroke="#000000" points="3863.7204,-198 3750.2796,-198 3750.2796,-162 3863.7204,-162 3863.7204,-198"/>
<text text-anchor="middle" x="3807" y="-175.8" font-family="Times,serif" font-size="14.00" fill="#000000">AjoutComponent</text>
</g>
<!-- AjoutComponent&#45;&gt;SharedModule -->
<g id="edge24" class="edge">
<title>AjoutComponent&#45;&gt;SharedModule</title>
<path fill="none" stroke="#000000" d="M3807,-161.9895C3807,-135.9835 3807,-91 3807,-91 3807,-91 1868.389,-91 1868.389,-91"/>
<polygon fill="#000000" stroke="#000000" points="1868.3891,-87.5001 1858.389,-91 1868.389,-94.5001 1868.3891,-87.5001"/>
</g>
<!-- StateDirective -->
<g id="node28" class="node">
<title>StateDirective</title>
<polygon fill="#ffffb3" stroke="#000000" points="3732.0758,-198 3635.9242,-198 3635.9242,-162 3732.0758,-162 3732.0758,-198"/>
<text text-anchor="middle" x="3684" y="-175.8" font-family="Times,serif" font-size="14.00" fill="#000000">StateDirective</text>
</g>
<!-- StateDirective&#45;&gt;SharedModule -->
<g id="edge25" class="edge">
<title>StateDirective&#45;&gt;SharedModule</title>
<path fill="none" stroke="#000000" d="M3684,-161.9735C3684,-136.4907 3684,-93 3684,-93 3684,-93 1868.6687,-93 1868.6687,-93"/>
<polygon fill="#000000" stroke="#000000" points="1868.6688,-89.5001 1858.6687,-93 1868.6687,-96.5001 1868.6688,-89.5001"/>
</g>
<!-- TableauComponent -->
<g id="node29" class="node">
<title>TableauComponent</title>
<polygon fill="#ffffb3" stroke="#000000" points="3618.4201,-198 3491.5799,-198 3491.5799,-162 3618.4201,-162 3618.4201,-198"/>
<text text-anchor="middle" x="3555" y="-175.8" font-family="Times,serif" font-size="14.00" fill="#000000">TableauComponent</text>
</g>
<!-- TableauComponent&#45;&gt;SharedModule -->
<g id="edge26" class="edge">
<title>TableauComponent&#45;&gt;SharedModule</title>
<path fill="none" stroke="#000000" d="M3555,-161.9737C3555,-137.0227 3555,-95 3555,-95 3555,-95 1868.4419,-95 1868.4419,-95"/>
<polygon fill="#000000" stroke="#000000" points="1868.4419,-91.5001 1858.4419,-95 1868.4418,-98.5001 1868.4419,-91.5001"/>
</g>
<!-- TableauLightComponent -->
<g id="node30" class="node">
<title>TableauLightComponent</title>
<polygon fill="#ffffb3" stroke="#000000" points="3473.2534,-198 3316.7466,-198 3316.7466,-162 3473.2534,-162 3473.2534,-198"/>
<text text-anchor="middle" x="3395" y="-175.8" font-family="Times,serif" font-size="14.00" fill="#000000">TableauLightComponent</text>
</g>
<!-- TableauLightComponent&#45;&gt;SharedModule -->
<g id="edge27" class="edge">
<title>TableauLightComponent&#45;&gt;SharedModule</title>
<path fill="none" stroke="#000000" d="M3395,-161.8015C3395,-137.6437 3395,-98 3395,-98 3395,-98 1868.6442,-98 1868.6442,-98"/>
<polygon fill="#000000" stroke="#000000" points="1868.6443,-94.5001 1858.6442,-98 1868.6442,-101.5001 1868.6443,-94.5001"/>
</g>
<!-- TemplateAComponent -->
<g id="node31" class="node">
<title>TemplateAComponent</title>
<polygon fill="#ffffb3" stroke="#000000" points="3298.3075,-198 3153.6925,-198 3153.6925,-162 3298.3075,-162 3298.3075,-198"/>
<text text-anchor="middle" x="3226" y="-175.8" font-family="Times,serif" font-size="14.00" fill="#000000">TemplateAComponent</text>
</g>
<!-- TemplateAComponent&#45;&gt;SharedModule -->
<g id="edge28" class="edge">
<title>TemplateAComponent&#45;&gt;SharedModule</title>
<path fill="none" stroke="#000000" d="M3226,-161.8468C3226,-138.2434 3226,-100 3226,-100 3226,-100 1868.6009,-100 1868.6009,-100"/>
<polygon fill="#000000" stroke="#000000" points="1868.601,-96.5001 1858.6009,-100 1868.6009,-103.5001 1868.601,-96.5001"/>
</g>
<!-- TemplateBComponent -->
<g id="node32" class="node">
<title>TemplateBComponent</title>
<polygon fill="#ffffb3" stroke="#000000" points="3135.5379,-198 2992.4621,-198 2992.4621,-162 3135.5379,-162 3135.5379,-198"/>
<text text-anchor="middle" x="3064" y="-175.8" font-family="Times,serif" font-size="14.00" fill="#000000">TemplateBComponent</text>
</g>
<!-- TemplateBComponent&#45;&gt;SharedModule -->
<g id="edge29" class="edge">
<title>TemplateBComponent&#45;&gt;SharedModule</title>
<path fill="none" stroke="#000000" d="M3064,-161.9092C3064,-138.8672 3064,-102 3064,-102 3064,-102 1868.584,-102 1868.584,-102"/>
<polygon fill="#000000" stroke="#000000" points="1868.5841,-98.5001 1858.584,-102 1868.584,-105.5001 1868.5841,-98.5001"/>
</g>
<!-- TotalPipe -->
<g id="node33" class="node">
<title>TotalPipe</title>
<polygon fill="#ffffb3" stroke="#000000" points="2974.4376,-198 2903.5624,-198 2903.5624,-162 2974.4376,-162 2974.4376,-198"/>
<text text-anchor="middle" x="2939" y="-175.8" font-family="Times,serif" font-size="14.00" fill="#000000">TotalPipe</text>
</g>
<!-- TotalPipe&#45;&gt;SharedModule -->
<g id="edge30" class="edge">
<title>TotalPipe&#45;&gt;SharedModule</title>
<path fill="none" stroke="#000000" d="M2939,-161.9891C2939,-139.5148 2939,-104 2939,-104 2939,-104 1868.2813,-104 1868.2813,-104"/>
<polygon fill="#000000" stroke="#000000" points="1868.2813,-100.5001 1858.2813,-104 1868.2813,-107.5001 1868.2813,-100.5001"/>
</g>
<!-- FooterComponent -->
<g id="node41" class="node">
<title>FooterComponent</title>
<polygon fill="#ffffb3" stroke="#000000" points="639.8809,-122 522.1191,-122 522.1191,-86 639.8809,-86 639.8809,-122"/>
<text text-anchor="middle" x="581" y="-99.8" font-family="Times,serif" font-size="14.00" fill="#000000">FooterComponent</text>
</g>
<!-- FooterComponent&#45;&gt;UiModule -->
<g id="edge38" class="edge">
<title>FooterComponent&#45;&gt;UiModule</title>
<path fill="none" stroke="#000000" d="M539.1688,-122.207C539.1688,-127.5549 539.1688,-132 539.1688,-132 539.1688,-132 455.2578,-132 455.2578,-132 455.2578,-132 455.2578,-151.8533 455.2578,-151.8533"/>
<polygon fill="#000000" stroke="#000000" points="451.7579,-151.8532 455.2578,-161.8533 458.7579,-151.8533 451.7579,-151.8532"/>
</g>
<!-- HeaderComponent -->
<g id="node42" class="node">
<title>HeaderComponent</title>
<polygon fill="#ffffb3" stroke="#000000" points="503.7437,-122 382.2563,-122 382.2563,-86 503.7437,-86 503.7437,-122"/>
<text text-anchor="middle" x="443" y="-99.8" font-family="Times,serif" font-size="14.00" fill="#000000">HeaderComponent</text>
</g>
<!-- HeaderComponent&#45;&gt;UiModule -->
<g id="edge39" class="edge">
<title>HeaderComponent&#45;&gt;UiModule</title>
<path fill="none" stroke="#000000" d="M430.7422,-122.0109C430.7422,-122.0109 430.7422,-151.855 430.7422,-151.855"/>
<polygon fill="#000000" stroke="#000000" points="427.2423,-151.8549 430.7422,-161.855 434.2423,-151.855 427.2423,-151.8549"/>
</g>
<!-- NavComponent -->
<g id="node43" class="node">
<title>NavComponent</title>
<polygon fill="#ffffb3" stroke="#000000" points="364.1542,-122 259.8458,-122 259.8458,-86 364.1542,-86 364.1542,-122"/>
<text text-anchor="middle" x="312" y="-99.8" font-family="Times,serif" font-size="14.00" fill="#000000">NavComponent</text>
</g>
<!-- NavComponent&#45;&gt;UiModule -->
<g id="edge40" class="edge">
<title>NavComponent&#45;&gt;UiModule</title>
<path fill="none" stroke="#000000" d="M312,-122.308C312,-142.1455 312,-171 312,-171 312,-171 396.1606,-171 396.1606,-171"/>
<polygon fill="#000000" stroke="#000000" points="396.1606,-174.5001 406.1606,-171 396.1605,-167.5001 396.1606,-174.5001"/>
</g>
<!-- UiComponent -->
<g id="node44" class="node">
<title>UiComponent</title>
<polygon fill="#ffffb3" stroke="#000000" points="241.8302,-122 146.1698,-122 146.1698,-86 241.8302,-86 241.8302,-122"/>
<text text-anchor="middle" x="194" y="-99.8" font-family="Times,serif" font-size="14.00" fill="#000000">UiComponent</text>
</g>
<!-- UiComponent&#45;&gt;UiModule -->
<g id="edge41" class="edge">
<title>UiComponent&#45;&gt;UiModule</title>
<path fill="none" stroke="#000000" d="M194,-122.0109C194,-144.4852 194,-180 194,-180 194,-180 396.2592,-180 396.2592,-180"/>
<polygon fill="#000000" stroke="#000000" points="396.2592,-183.5001 406.2592,-180 396.2592,-176.5001 396.2592,-183.5001"/>
</g>
</g>
</svg>
